<svg width="250" height="250" viewBox="0 0 250 250" fill="none" xmlns="http://www.w3.org/2000/svg">
<circle cx="125" cy="125" r="125" fill="url(#paint0_linear_17_139)"/>
<path d="M224.468 117.661C220.955 113.597 215.842 111.258 210.448 111.258C208.59 111.258 206.749 111.534 204.976 112.081L185.539 117.692L185.352 117.743L185.166 117.801L184.202 117.957C183.72 117.957 183.239 117.844 182.811 117.63L173.259 112.951L184.21 98.457C188.889 93.032 189.642 85.1164 185.974 78.8797C182.943 73.7508 177.379 70.5797 171.441 70.5797C169.972 70.5797 168.519 70.7664 167.104 71.143L166.218 71.3801L165.379 71.7453L125.751 89.1238L125.16 89.3801L95.5025 74.8469C82.9744 68.6836 68.5892 65 57.04 65C39.9502 65 33.4295 73.0594 31.067 77.8621C23.9943 92.259 35.0927 106.773 64.0502 120.999L93.49 135.498L110.145 209.337C111.839 217.467 119.269 223.505 127.771 223.505L128.658 223.482C137.393 223.043 144.434 216.565 145.631 207.978L153.752 165.155L163.731 170.071L163.863 170.137L164.004 170.199C172.265 174.015 180.822 176.028 188.757 176.028C201.674 176.028 211.761 170.58 216.432 161.075L216.494 160.943L216.556 160.811L227.173 137.818C230.367 131.154 229.317 123.265 224.468 117.661ZM216.378 132.715L205.722 155.809C202.963 161.416 196.567 164.09 188.756 164.09C182.679 164.09 175.746 162.474 169.008 159.361L149.563 149.786L150.472 145.22L145.996 142.236L144.947 147.513L143.509 154.671L143.579 154.718L133.841 206.109C133.515 209.105 131.074 211.409 128.074 211.561L127.771 211.568C124.88 211.568 122.385 209.548 121.787 206.711L103.881 127.307L69.3119 110.287C59.333 105.383 36.8802 93.1148 41.7841 83.132C43.7974 79.0289 49.1365 77.1398 56.0259 76.9691C49.7892 90.3402 65.6591 96.7289 65.6591 96.7289L69.6384 88.7707C64.3302 86.7813 63.6697 82.1414 64.3302 80.152C64.3302 80.152 64.7697 79.0676 65.5076 77.6531C73.4935 78.8852 82.3216 81.6672 90.249 85.5648L124.88 102.539L139.934 109.661L145.242 107.007L130.546 100.055L170.175 82.6812C170.594 82.5727 171.014 82.518 171.434 82.518C173.151 82.518 174.783 83.4117 175.685 84.9391C176.811 86.8469 176.516 89.2719 174.985 90.8574L155.004 117.305L177.535 128.341C179.625 129.37 181.91 129.895 184.202 129.895C185.765 129.895 187.327 129.65 188.842 129.161L208.419 123.514C209.087 123.297 209.772 123.196 210.447 123.196C212.336 123.196 214.17 124.004 215.445 125.481C217.186 127.485 217.551 130.338 216.378 132.715Z" fill="#FFFDFD"/>
<path d="M81.2416 96.7281C78.4986 96.7281 76.2677 98.9547 76.2677 101.702C76.2677 104.449 78.4986 106.676 81.2416 106.676C83.9927 106.676 86.2158 104.449 86.2158 101.702C86.2154 98.9551 83.9927 96.7281 81.2416 96.7281Z" fill="#FFFDFD"/>
<path d="M100.477 105.681C97.7255 105.681 95.5029 107.908 95.5029 110.655C95.5029 113.402 97.7255 115.629 100.477 115.629C103.22 115.629 105.451 113.402 105.451 110.655C105.451 107.908 103.22 105.681 100.477 105.681Z" fill="#FFFDFD"/>
<path d="M119.704 114.634C116.961 114.634 114.731 116.861 114.731 119.608C114.731 122.355 116.961 124.582 119.704 124.582C122.456 124.582 124.678 122.355 124.678 119.608C124.678 116.861 122.456 114.634 119.704 114.634Z" fill="#FFFDFD"/>
<path d="M138.939 123.587C136.188 123.587 133.965 125.814 133.965 128.561C133.965 131.309 136.188 133.535 138.939 133.535C141.683 133.535 143.913 131.309 143.913 128.561C143.913 125.814 141.683 123.587 138.939 123.587Z" fill="#FFFDFD"/>
<defs>
<linearGradient id="paint0_linear_17_139" x1="15.4762" y1="79.1667" x2="192.262" y2="225.595" gradientUnits="userSpaceOnUse">
<stop stop-color="#47D3FF"/>
<stop offset="1" stop-color="#0DBCA7" stop-opacity="0.43"/>
</linearGradient>
</defs>
</svg>
