<svg width="250" height="250" viewBox="0 0 250 250" fill="none" xmlns="http://www.w3.org/2000/svg">
<circle cx="125" cy="125" r="125" fill="url(#paint0_linear_17_138)"/>
<path d="M224.523 121.762C223.871 120.612 222.651 119.901 221.329 119.901H205.444V112.465C205.444 110.438 203.8 108.794 201.773 108.794H190.61V94.151C190.61 92.124 188.966 90.4806 186.939 90.4806H172.411V75.6703C172.411 73.6434 170.767 72 168.74 72H132.19C130.163 72 128.519 73.6434 128.519 75.6703V90.4806H113.991C111.964 90.4806 110.321 92.124 110.321 94.151V108.794H99.1567C97.1298 108.794 95.4864 110.438 95.4864 112.465V126.955H80.6522V86.8103C80.6522 84.7833 79.0088 83.1399 76.9819 83.1399H32.9378C30.9109 83.1399 29.2675 84.7833 29.2675 86.8103V126.955H28.6706C27.3516 126.955 26.1339 127.662 25.4811 128.809C24.8282 129.955 24.8406 131.363 25.5136 132.497L47.8247 170.111C50.588 174.715 56.7212 178.187 62.09 178.187H183.467C188.836 178.187 194.97 174.715 197.735 170.109L224.479 125.458C225.158 124.323 225.175 122.912 224.523 121.762ZM198.103 119.901H172.411V116.135H198.103V119.901ZM165.07 116.135V119.949C158.919 120.437 154.534 124.576 152.497 126.955H135.861V116.135H165.07V116.135ZM183.269 108.794H153.906V97.8213H183.269V108.794ZM135.861 79.3407H165.07V90.4806H135.861V79.3407ZM117.662 97.8213H146.566V108.794H117.662V97.8213ZM102.828 116.135H128.52V126.955H102.828V116.135ZM36.6082 90.4806H73.3116V97.5538H65.9709C63.9439 97.5538 62.3005 99.1972 62.3005 101.224C62.3005 103.251 63.9439 104.894 65.9709 104.894H73.3116V112.35H65.9709C63.9439 112.35 62.3005 113.993 62.3005 116.02C62.3005 118.047 63.9439 119.691 65.9709 119.691H73.3116V126.955H36.6082V90.4806ZM191.439 166.334C190.021 168.695 186.222 170.846 183.467 170.846H62.0904C59.3363 170.846 55.5366 168.695 54.1285 166.35L35.1153 134.295H76.9819H154.288C155.51 134.295 156.663 133.671 157.345 132.657C157.382 132.603 161.047 127.241 166.267 127.241H201.161C201.361 127.275 201.564 127.296 201.773 127.296C201.982 127.296 202.185 127.275 202.385 127.241H214.852L191.439 166.334Z" fill="white"/>
<path d="M54.9599 97.5552C53.9918 97.5552 53.0467 97.9452 52.3631 98.6288C51.6795 99.3124 51.2896 100.257 51.2896 101.226C51.2896 102.189 51.6795 103.134 52.3631 103.818C53.0467 104.501 53.9918 104.896 54.9599 104.896C55.9279 104.896 56.8731 104.501 57.5567 103.818C58.2403 103.134 58.6302 102.189 58.6302 101.226C58.6302 100.257 58.2403 99.3124 57.5567 98.6288C56.8731 97.9452 55.9279 97.5552 54.9599 97.5552Z" fill="white"/>
<path d="M44.1002 97.5552C43.1367 97.5552 42.187 97.9452 41.508 98.6288C40.8244 99.3124 40.4299 100.257 40.4299 101.226C40.4299 102.189 40.8244 103.134 41.508 103.818C42.1916 104.501 43.1367 104.896 44.1002 104.896C45.0683 104.896 46.0134 104.501 46.697 103.818C47.3806 103.134 47.7705 102.189 47.7705 101.226C47.7705 100.257 47.3806 99.3124 46.697 98.6288C46.0134 97.9452 45.0683 97.5552 44.1002 97.5552Z" fill="white"/>
<path d="M54.9599 112.351C53.9918 112.351 53.0467 112.741 52.3631 113.425C51.6795 114.108 51.2896 115.054 51.2896 116.022C51.2896 116.985 51.6795 117.93 52.3631 118.614C53.0467 119.297 53.9918 119.692 54.9599 119.692C55.9279 119.692 56.8731 119.297 57.5567 118.614C58.2403 117.93 58.6302 116.985 58.6302 116.022C58.6302 115.054 58.2403 114.108 57.5567 113.425C56.8731 112.741 55.9279 112.351 54.9599 112.351Z" fill="white"/>
<path d="M44.1002 112.351C43.1367 112.351 42.1916 112.741 41.508 113.425C40.8244 114.108 40.4299 115.054 40.4299 116.022C40.4299 116.985 40.8244 117.93 41.508 118.614C42.1916 119.297 43.1367 119.692 44.1002 119.692C45.0683 119.692 46.0134 119.297 46.697 118.614C47.3806 117.93 47.7705 116.985 47.7705 116.022C47.7705 115.054 47.3806 114.108 46.697 113.425C46.0134 112.741 45.0683 112.351 44.1002 112.351Z" fill="white"/>
<path d="M80.7349 141.751C79.7714 141.751 78.8263 142.141 78.1427 142.824C77.4591 143.508 77.0645 144.453 77.0645 145.421C77.0645 146.384 77.4591 147.334 78.1427 148.018C78.8217 148.701 79.7714 149.091 80.7349 149.091C81.7029 149.091 82.648 148.701 83.3316 148.018C84.0152 147.334 84.4052 146.389 84.4052 145.421C84.4052 144.453 84.0152 143.508 83.3316 142.824C82.648 142.141 81.7029 141.751 80.7349 141.751Z" fill="white"/>
<path d="M95.4483 141.751C94.4802 141.751 93.5351 142.141 92.8515 142.824C92.1679 143.508 91.778 144.453 91.778 145.421C91.778 146.389 92.1679 147.334 92.8515 148.018C93.5351 148.701 94.4848 149.091 95.4483 149.091C96.4163 149.091 97.3615 148.701 98.0451 148.018C98.7287 147.334 99.1186 146.389 99.1186 145.421C99.1186 144.453 98.7287 143.508 98.0451 142.824C97.3615 142.141 96.4163 141.751 95.4483 141.751Z" fill="white"/>
<path d="M110.162 141.751C109.194 141.751 108.249 142.141 107.565 142.824C106.881 143.508 106.491 144.458 106.491 145.421C106.491 146.384 106.881 147.334 107.565 148.018C108.249 148.701 109.194 149.091 110.162 149.091C111.125 149.091 112.07 148.701 112.754 148.018C113.438 147.334 113.832 146.384 113.832 145.421C113.832 144.458 113.438 143.508 112.754 142.824C112.07 142.141 111.125 141.751 110.162 141.751Z" fill="white"/>
<path d="M124.871 141.751C123.907 141.751 122.957 142.141 122.278 142.824C121.595 143.508 121.2 144.453 121.2 145.421C121.2 146.389 121.595 147.334 122.278 148.018C122.957 148.701 123.907 149.091 124.871 149.091C125.839 149.091 126.784 148.701 127.467 148.018C128.151 147.334 128.541 146.389 128.541 145.421C128.541 144.453 128.151 143.508 127.467 142.824C126.784 142.141 125.839 141.751 124.871 141.751Z" fill="white"/>
<path d="M139.584 141.751C138.621 141.751 137.671 142.141 136.987 142.824C136.304 143.508 135.914 144.453 135.914 145.421C135.914 146.389 136.304 147.334 136.987 148.018C137.671 148.701 138.621 149.091 139.584 149.091C140.552 149.091 141.497 148.701 142.181 148.018C142.864 147.334 143.254 146.389 143.254 145.421C143.254 144.453 142.864 143.508 142.181 142.824C141.497 142.141 140.552 141.751 139.584 141.751Z" fill="white"/>
<path d="M154.298 141.751C153.33 141.751 152.384 142.141 151.701 142.824C151.017 143.508 150.627 144.453 150.627 145.421C150.627 146.389 151.017 147.334 151.701 148.018C152.384 148.701 153.33 149.091 154.298 149.091C155.261 149.091 156.206 148.701 156.89 148.018C157.573 147.334 157.968 146.389 157.968 145.421C157.968 144.453 157.573 143.508 156.89 142.824C156.206 142.141 155.261 141.751 154.298 141.751Z" fill="white"/>
<defs>
<linearGradient id="paint0_linear_17_138" x1="15.4762" y1="79.1667" x2="192.262" y2="225.595" gradientUnits="userSpaceOnUse">
<stop stop-color="#4A47FF"/>
<stop offset="1" stop-color="#0DBCA7" stop-opacity="0.43"/>
</linearGradient>
</defs>
</svg>
