<svg width="250" height="250" viewBox="0 0 250 250" fill="none" xmlns="http://www.w3.org/2000/svg">
<circle cx="125" cy="125" r="125" fill="url(#paint0_linear_17_140)"/>
<path d="M36.375 51C30.1406 51 25 56.1406 25 62.375V167C25 173.641 30.3594 179 37 179H53.375C55.2813 190.344 65.1406 199 77 199C88.8594 199 98.7188 190.344 100.625 179H137.625C140.578 179 143.219 177.75 145.25 175.875C147.328 177.703 149.984 178.969 153 179H157.375C159.281 190.344 169.141 199 181 199C194.203 199 205 188.203 205 175C205 161.797 194.203 151 181 151C169.141 151 159.281 159.656 157.375 171H153C152.25 171 151.109 170.484 150.25 169.625C149.391 168.766 149 167.734 149 167V91C149 89.5 151.5 87 153 87H185C188.141 87 192.562 90.3594 195.625 94C195.656 94.0469 195.719 94.0781 195.75 94.125L196.375 95H177C170.625 95 165 100.156 165 107V123C165 126.328 166.5 129.25 168.625 131.375C170.75 133.5 173.672 135 177 135H217V167C217 168.5 214.5 171 213 171H205V179H213C219.641 179 225 173.641 225 167V128.5C225 119.344 218.625 111.25 218.625 111.25H218.5L202 89.25V89.125L201.875 89C198.188 84.5469 192.656 79 185 79H153C151.578 79 150.266 79.2969 149 79.75V62.625C149 56.4844 144.156 51 137.75 51H36.375ZM36.375 59H137.75C139.469 59 141 60.6563 141 62.625V167.625C141 169.5 139.516 171 137.625 171H100.625C98.7188 159.656 88.8594 151 77 151C65.1406 151 55.2813 159.656 53.375 171H37C35.5 171 33 168.484 33 167V62.375C33 60.5 34.4688 59 36.375 59ZM177 103H202.375L212.125 116C212.125 116 215.75 122.203 216.5 127H177C176.328 127 175.25 126.5 174.375 125.625C173.5 124.75 173 123.672 173 123V107C173 104.984 175.375 103 177 103ZM77 159C85.8906 159 93 166.109 93 175C93 183.891 85.8906 191 77 191C68.1094 191 61 183.891 61 175C61 166.109 68.1094 159 77 159ZM181 159C189.891 159 197 166.109 197 175C197 183.891 189.891 191 181 191C172.109 191 165 183.891 165 175C165 166.109 172.109 159 181 159Z" fill="white"/>
<defs>
<linearGradient id="paint0_linear_17_140" x1="15.4762" y1="79.1667" x2="192.262" y2="225.595" gradientUnits="userSpaceOnUse">
<stop stop-color="#6BFF47"/>
<stop offset="1" stop-color="#89E297" stop-opacity="0.43"/>
</linearGradient>
</defs>
</svg>
