<svg width="250" height="250" viewBox="0 0 250 250" fill="none" xmlns="http://www.w3.org/2000/svg">
<circle cx="125" cy="125" r="125" fill="url(#paint0_linear_17_141)"/>
<path d="M221.76 169.862H218.089V98.2127L219.668 99.5488C220.276 100.064 221.019 100.315 221.759 100.315C222.679 100.315 223.593 99.9255 224.233 99.1682C225.389 97.8024 225.219 95.7579 223.853 94.6024L178.928 56.5894C178.563 56.2801 178.133 56.0559 177.671 55.9324L125.835 42.1095C125.287 41.9635 124.712 41.9635 124.165 42.1095L72.3293 55.9324C71.8667 56.0559 71.4373 56.2801 71.0715 56.5894L26.1471 94.6024C24.7812 95.7583 24.611 97.8024 25.7665 99.1682C26.9224 100.534 28.9665 100.705 30.3324 99.5488L31.9116 98.2127V169.862H28.2399C26.4507 169.862 25.0002 171.312 25.0002 173.101C25.0002 174.89 26.4507 176.341 28.2399 176.341H221.76C223.55 176.341 225 174.89 225 173.101C225 171.312 223.55 169.862 221.76 169.862ZM38.287 92.8179L74.7017 62.0054L125 48.5924L175.299 62.0054L211.713 92.8179C211.648 93.0749 211.609 93.3423 211.609 93.6197V169.862H193.899V103.987C193.899 102.198 192.448 100.747 190.659 100.747H59.3414C57.5522 100.747 56.1017 102.198 56.1017 103.987V169.862H38.3911V93.6197C38.3911 93.3423 38.3527 93.0749 38.287 92.8179ZM187.419 128.393H62.5812V121.049H187.419V128.393ZM62.5812 134.872H187.419V142.216H62.5812V134.872ZM187.419 114.57H62.5812V107.227H187.419V114.57ZM62.5812 148.695H187.419V156.039H62.5812V148.695ZM62.5812 169.862V162.518H187.419V169.862H62.5812Z" fill="white"/>
<path d="M118.089 89.9479H131.912C133.701 89.9479 135.151 88.4974 135.151 86.7082V72.8853C135.151 71.0961 133.701 69.6456 131.912 69.6456H118.089C116.3 69.6456 114.849 71.0961 114.849 72.8853V86.7082C114.849 88.4974 116.3 89.9479 118.089 89.9479ZM121.328 76.1251H128.672V83.4685H121.328V76.1251Z" fill="white"/>
<path d="M90.443 89.9479H104.266C106.055 89.9479 107.506 88.4974 107.506 86.7082V72.8853C107.506 71.0961 106.055 69.6456 104.266 69.6456H90.443C88.6538 69.6456 87.2032 71.0961 87.2032 72.8853V86.7082C87.2032 88.4974 88.6538 89.9479 90.443 89.9479ZM93.6827 76.1251H101.026V83.4685H93.6827V76.1251Z" fill="white"/>
<path d="M145.735 89.9479H159.557C161.347 89.9479 162.797 88.4974 162.797 86.7082V72.8853C162.797 71.0961 161.347 69.6456 159.557 69.6456H145.735C143.945 69.6456 142.495 71.0961 142.495 72.8853V86.7082C142.495 88.4974 143.945 89.9479 145.735 89.9479ZM148.974 76.1251H156.318V83.4685H148.974V76.1251Z" fill="white"/>
<defs>
<linearGradient id="paint0_linear_17_141" x1="15.4762" y1="79.1667" x2="192.262" y2="225.595" gradientUnits="userSpaceOnUse">
<stop stop-color="#FF7347"/>
<stop offset="1" stop-color="#E4C760" stop-opacity="0.468594"/>
</linearGradient>
</defs>
</svg>
